<svg id="visual" viewBox="0 0 900 600" width="900" height="600" xmlns="http://www.w3.org/2000/svg" xmlns:xlink="http://www.w3.org/1999/xlink" version="1.1"><path d="M0 193L100 295L200 97L300 205L400 199L500 151L600 205L700 331L800 211L900 175L900 0L800 0L700 0L600 0L500 0L400 0L300 0L200 0L100 0L0 0Z" fill="#f4fcff"></path><path d="M0 409L100 463L200 445L300 457L400 397L500 301L600 433L700 487L800 385L900 337L900 173L800 209L700 329L600 203L500 149L400 197L300 203L200 95L100 293L0 191Z" fill="#e7f5f8"></path><path d="M0 523L100 517L200 535L300 523L400 511L500 451L600 511L700 529L800 433L900 481L900 335L800 383L700 485L600 431L500 299L400 395L300 455L200 443L100 461L0 407Z" fill="#daefef"></path><path d="M0 601L100 601L200 601L300 601L400 601L500 601L600 601L700 601L800 601L900 601L900 479L800 431L700 527L600 509L500 449L400 509L300 521L200 533L100 515L0 521Z" fill="#cee8e5"></path></svg>