<?xml version="1.0" standalone="no"?>
<svg viewBox="0 0 200 200" xmlns="http://www.w3.org/2000/svg">
  <path fill="#FA4D56" d="M24.5,-40.4C31.2,-33.9,35.5,-26,38.2,-18C41,-10,42.1,-1.9,43.7,8.2C45.2,18.3,47.1,30.4,44.1,43.7C41.1,57,33.2,71.5,20.3,80.3C7.5,89.2,-10.3,92.4,-25.8,87.9C-41.2,83.3,-54.4,70.9,-65.7,57.3C-77.1,43.6,-86.6,28.7,-90.3,12.2C-93.9,-4.4,-91.7,-22.6,-80.8,-33C-69.9,-43.3,-50.5,-45.7,-35.6,-48.5C-20.6,-51.3,-10.3,-54.3,-0.7,-53.3C8.9,-52.2,17.9,-47,24.5,-40.4Z" transform="translate(100 100)" />
</svg>
